HIERARCHY
ROOT Hips
{
	OFFSET 0.000000 0.000000 0.000000 
	CHANNELS 6 Xposition Yposition Zposition Zrotation Yrotation Xrotation
	JOINT LeftUpLeg
	{
		OFFSET 1.363060 -1.794630 0.839290 
		CHANNELS 3 Zrotation Yrotation Xrotation
		JOINT LeftLeg
		{
			OFFSET 2.448110 -6.726130 0.000000 
			CHANNELS 3 Zrotation Yrotation Xrotation
			JOINT LeftFoot
			{
				OFFSET 2.562200 -7.039590 0.000000 
				CHANNELS 3 Zrotation Yrotation Xrotation
				JOINT LeftToeBase
				{
					OFFSET 0.157640 -0.433110 2.322550 
					CHANNELS 3 Zrotation Yrotation Xrotation
					End Site
					{
						OFFSET 0.000000 0.000000 0.000000 
					}
				}
			}
		}
	}
	JOINT RightUpLeg
	{
		OFFSET -1.305520 -1.794630 0.839290 
		CHANNELS 3 Zrotation Yrotation Xrotation
		JOINT RightLeg
		{
			OFFSET -2.542530 -6.985550 0.000000 
			CHANNELS 3 Zrotation Yrotation Xrotation
			JOINT RightFoot
			{
				OFFSET -2.568260 -7.056230 0.000000 
				CHANNELS 3 Zrotation Yrotation Xrotation
				JOINT RightToeBase
				{
					OFFSET -0.164730 -0.452590 2.363150 
					CHANNELS 3 Zrotation Yrotation Xrotation
					End Site
					{
						OFFSET 0.000000 0.000000 0.000000 
					}
				}
			}
		}
	}
	JOINT Spine
	{
		OFFSET 0.028270 2.035590 -0.193380 
		CHANNELS 3 Zrotation Yrotation Xrotation
		JOINT Spine1
		{
			OFFSET 0.056720 2.048850 -0.042750 
			CHANNELS 3 Zrotation Yrotation Xrotation
			JOINT Neck1
			{
				OFFSET -0.054170 1.746240 0.172020 
				CHANNELS 3 Zrotation Yrotation Xrotation
				JOINT Head
				{
					OFFSET 0.104070 1.761360 -0.123970 
					CHANNELS 3 Zrotation Yrotation Xrotation
					End Site
					{
						OFFSET 0.000000 0.000000 0.000000 
					}
				}
			}
			JOINT LeftArm
			{
				OFFSET 3.362410 1.200890 -0.311210 
				CHANNELS 3 Zrotation Yrotation Xrotation
				JOINT LeftForeArm
				{
					OFFSET 4.983000 -0.000000 -0.000000 
					CHANNELS 3 Zrotation Yrotation Xrotation
					JOINT LeftHand
					{
						OFFSET 3.483560 -0.000000 -0.000000 
						CHANNELS 3 Zrotation Yrotation Xrotation
						JOINT LeftHandIndex1
						{
							OFFSET 0.715260 -0.000000 -0.000000 
							CHANNELS 3 Zrotation Yrotation Xrotation
							End Site
							{
								OFFSET 0.000000 0.000000 0.000000 
							}
						}
					}
				}
			}
			JOINT RightArm
			{
				OFFSET -3.136600 1.374050 -0.404650 
				CHANNELS 3 Zrotation Yrotation Xrotation
				JOINT RightForeArm
				{
					OFFSET -5.241900 -0.000000 -0.000000 
					CHANNELS 3 Zrotation Yrotation Xrotation
					JOINT RightHand
					{
						OFFSET -3.444170 -0.000000 -0.000000 
						CHANNELS 3 Zrotation Yrotation Xrotation
						JOINT RightHandIndex1
						{
							OFFSET -0.622530 -0.000000 -0.000000 
							CHANNELS 3 Zrotation Yrotation Xrotation
							End Site
							{
								OFFSET 0.000000 0.000000 0.000000 
							}
						}
					}
				}
			}
		}
	}
}
MOTION
Frames: 18
Frame Time: 0.041667
1.037368 17.805501 -26.845678 1.228203 38.950382 3.494289 -9.236478 -10.274284 -11.135874 0.297632 9.269309 24.836603 0.968384 -0.793708 4.532577 0.195000 -2.843400 -7.843100 9.727575 -12.885944 -7.776464 -1.504874 -9.561841 25.062042 9.702943 -36.158681 -23.203807 -0.038200 -1.261400 3.468500 0.746295 7.417367 -1.150172 0.917179 3.914191 -0.705711 -3.818424 28.815424 -3.530919 -4.006300 14.163000 2.471100 -92.027391 2.327064 21.584294 15.380669 -24.598911 -3.155952 0.203904 0.359268 -7.319496 -7.125000 0.000000 0.000000 83.836951 -4.753837 16.874461 -15.859516 25.476553 -3.563348 0.122451 -0.499386 -11.116667 7.125000 0.000000 0.000000 
1.036569 17.806600 -26.843180 1.256454 38.999867 3.499270 -9.241526 -10.302291 -11.102194 0.292465 9.263691 24.814140 0.972101 -0.804817 4.547037 0.190300 -2.809700 -7.749400 9.737162 -12.842228 -7.731727 -1.501565 -9.569411 25.102428 9.621152 -36.024238 -23.462397 -0.044800 -1.365400 3.754700 1.447804 6.372026 -0.723840 2.171210 3.368924 -0.095013 -3.595611 29.914709 -3.605382 -3.511200 14.673000 2.309300 -93.824073 1.616642 18.770277 15.361966 -24.640286 -3.162354 0.209249 0.350787 -6.689606 -7.125000 0.000000 0.000000 82.964719 -3.358156 17.361019 -15.568454 25.087515 -3.438966 0.114828 -0.485042 -9.286828 7.125000 0.000000 0.000000 
1.039766 17.803303 -26.840982 1.433555 39.089670 3.579323 -9.394999 -10.321927 -11.060837 0.290208 9.270836 24.823077 0.980105 -0.843139 4.510146 0.193300 -2.831600 -7.810100 9.589438 -13.015908 -7.734339 -1.517529 -9.571800 25.108579 9.692374 -36.146231 -23.267391 -0.040800 -1.303600 3.584500 2.105586 5.386705 -0.307842 3.400839 2.842474 0.512713 -3.068243 30.951752 -3.729103 -3.258800 15.164300 2.321700 -95.542339 0.942617 16.400990 15.454046 -24.828375 -3.210702 0.210579 0.351795 -6.449650 -7.125000 0.000000 0.000000 82.189545 -2.023943 17.602860 -15.291612 24.717330 -3.330579 0.102076 -0.476933 -7.194164 7.125000 0.000000 0.000000 
1.038667 17.802604 -26.837186 1.415137 39.188874 3.550939 -9.374937 -10.303223 -11.054991 0.289718 9.269426 24.825269 1.011109 -0.961918 4.519751 0.192000 -2.821500 -7.782300 9.632006 -13.023995 -7.701557 -1.518402 -9.577406 25.120516 9.716872 -36.230819 -23.348960 -0.041100 -1.309200 3.600000 1.962541 5.614099 -0.298265 3.169444 2.960500 0.529736 -2.903578 30.853767 -4.426663 -3.235800 15.097700 1.980700 -95.159264 0.832930 16.993072 15.442575 -24.804022 -3.204653 0.210317 0.353798 -6.567501 -7.125000 0.000000 0.000000 82.399605 -2.524074 17.513230 -15.557565 25.064279 -3.434647 0.106086 -0.482031 -7.766915 7.125000 0.000000 0.000000 
1.038567 17.801305 -26.833889 1.442793 39.278295 3.542793 -9.396480 -10.316581 -11.030954 0.290486 9.273537 24.836953 1.026574 -1.023768 4.508316 0.192200 -2.823600 -7.788200 9.629614 -13.061023 -7.664027 -1.520594 -9.579176 25.125499 9.736734 -36.293591 -23.396616 -0.041400 -1.312700 3.609600 2.062675 5.467373 -0.222177 3.359848 2.880644 0.646974 -2.857543 31.003881 -4.516061 -3.153300 15.167000 1.901700 -95.402178 0.698185 16.702715 15.478349 -24.862945 -3.220732 0.210425 0.354906 -6.576678 -7.125000 0.000000 0.000000 82.372623 -2.335173 17.341118 -15.491966 24.979487 -3.409524 0.103176 -0.480647 -7.339897 7.125000 0.000000 0.000000 
1.038067 17.800006 -26.830592 1.453477 39.365305 3.523847 -9.405704 -10.341427 -11.004203 0.292198 9.278130 24.851087 1.037157 -1.067220 4.493966 0.192800 -2.827700 -7.799300 9.641226 -13.088540 -7.625494 -1.522027 -9.581078 25.129908 9.758811 -36.363666 -23.450825 -0.041500 -1.314800 3.615400 2.055616 5.473598 -0.221632 3.353470 2.883836 0.652356 -2.886638 30.963525 -4.462277 -3.191500 15.151700 1.926000 -95.360914 0.717012 16.822842 15.519471 -24.918842 -3.236768 0.209945 0.357029 -6.673112 -7.125000 0.000000 0.000000 82.493129 -2.343324 17.079254 -15.430152 24.902015 -3.387253 0.101210 -0.480662 -7.170528 7.125000 0.000000 0.000000 
1.037168 17.798907 -26.827494 1.438321 39.443894 3.492056 -9.395939 -10.364459 -10.984072 0.294679 9.282737 24.866743 1.046187 -1.104357 4.482408 0.193400 -2.831900 -7.811100 9.672066 -13.097180 -7.589371 -1.522224 -9.583819 25.136760 9.773822 -36.422915 -23.528422 -0.042200 -1.325100 3.643700 1.871856 5.738761 -0.312669 3.021371 3.024808 0.516352 -2.977094 30.638171 -4.276658 -3.373200 15.003900 2.073200 -94.855190 0.888395 17.609900 15.552736 -24.946849 -3.245989 0.208093 0.359053 -6.864131 -7.125000 0.000000 0.000000 82.907591 -2.455415 16.477912 -15.278266 24.713830 -3.332421 0.099457 -0.481298 -7.229900 7.125000 0.000000 0.000000 
1.036169 17.797908 -26.824797 1.417683 39.512755 3.458097 -9.379642 -10.379789 -10.970952 0.297755 9.288373 24.884897 1.055216 -1.140214 4.471046 0.194400 -2.839100 -7.831100 9.708153 -13.100343 -7.555742 -1.522230 -9.586555 25.144684 9.786038 -36.475220 -23.606394 -0.042900 -1.336600 3.675300 1.790797 5.867238 -0.348359 2.868207 3.091647 0.460488 -3.034952 30.449006 -4.019496 -3.472400 14.922200 2.224400 -94.609931 0.953321 18.032309 15.589439 -24.987821 -3.257871 0.205935 0.360089 -6.996012 -7.125000 0.000000 0.000000 83.106165 -2.516214 16.161305 -15.192375 24.606250 -3.301277 0.098642 -0.481317 -7.254759 7.125000 0.000000 0.000000 
1.034970 17.797009 -26.822599 1.390913 39.572434 3.423832 -9.358217 -10.388869 -10.965214 0.301119 9.294535 24.904251 1.063328 -1.172268 4.462564 0.195100 -2.844300 -7.845700 9.747266 -13.104829 -7.531070 -1.522563 -9.589608 25.153496 9.796723 -36.520314 -23.671102 -0.043700 -1.349300 3.710500 1.723496 5.986162 -0.358837 2.736931 3.151984 0.436889 -3.044201 30.298165 -3.826150 -3.523600 14.854200 2.339600 -94.398398 0.952402 18.409613 15.622083 -25.024928 -3.268821 0.204252 0.360991 -7.106663 -7.125000 0.000000 0.000000 83.284706 -2.594608 15.884948 -15.159396 24.566478 -3.289941 0.098461 -0.481659 -7.268824 7.125000 0.000000 0.000000 
1.033871 17.796109 -26.820701 1.370523 39.626255 3.396479 -9.340170 -10.381222 -10.970184 0.304365 9.300452 24.923920 1.075379 -1.219061 4.459460 0.195700 -2.848800 -7.858100 9.779521 -13.114844 -7.515166 -1.523675 -9.592990 25.163282 9.809877 -36.566050 -23.716991 -0.044100 -1.356100 3.729100 1.697249 6.047744 -0.352752 2.680599 3.182626 0.437765 -3.018915 30.224593 -3.719478 -3.530600 14.820500 2.392600 -94.298509 0.926470 18.619316 15.656247 -25.068413 -3.281458 0.203259 0.362081 -7.190099 -7.125000 0.000000 0.000000 83.388728 -2.682572 15.713340 -15.164710 24.574779 -3.292266 0.098739 -0.481829 -7.236348 7.125000 0.000000 0.000000 
1.032772 17.795310 -26.819002 1.354289 39.674576 3.372625 -9.324458 -10.367356 -10.977691 0.307275 9.305892 24.941942 1.088646 -1.270683 4.459194 0.196500 -2.854900 -7.875100 9.806915 -13.128944 -7.503877 -1.525288 -9.596465 25.173603 9.821610 -36.604680 -23.749316 -0.044500 -1.360700 3.742000 1.708311 6.058384 -0.337739 2.690956 3.187244 0.453835 -2.971029 30.216890 -3.696876 -3.507100 14.816500 2.385100 -94.296932 0.902199 18.679842 15.694043 -25.120592 -3.296642 0.203486 0.363498 -7.248480 -7.125000 0.000000 0.000000 83.438853 -2.801398 15.616858 -15.209469 24.632695 -3.308941 0.099224 -0.482042 -7.147623 7.125000 0.000000 0.000000 
1.031673 17.794611 -26.817404 1.349867 39.720088 3.357605 -9.315796 -10.352970 -10.984314 0.309186 9.310116 24.955769 1.102516 -1.324178 4.464418 0.196600 -2.855600 -7.876900 9.824510 -13.148074 -7.496550 -1.527627 -9.600127 25.185240 9.833089 -36.640192 -23.775081 -0.044400 -1.359600 3.738800 1.791902 5.961645 -0.292443 2.835636 3.135248 0.516207 -2.900219 30.314559 -3.665416 -3.426900 14.862200 2.357500 -94.491506 0.835425 18.435270 15.728857 -25.175166 -3.312277 0.204783 0.364397 -7.239513 -7.125000 0.000000 0.000000 83.324277 -2.913197 15.761390 -15.307624 24.756635 -3.344773 0.100498 -0.481973 -7.060752 7.125000 0.000000 0.000000 
1.030574 17.794011 -26.815505 1.352815 39.764137 3.347461 -9.311885 -10.353058 -10.980912 0.309993 9.312605 24.963359 1.113113 -1.364840 4.470095 0.197300 -2.860200 -7.889700 9.835771 -13.167546 -7.490081 -1.530561 -9.604315 25.198152 9.846728 -36.678267 -23.791085 -0.044000 -1.354000 3.723500 1.909242 5.815537 -0.218069 3.043894 3.055655 0.619263 -2.811218 30.462059 -3.608838 -3.306000 14.929600 2.335900 -94.779305 0.701969 18.039963 15.753204 -25.219028 -3.324604 0.206416 0.364355 -7.187439 -7.125000 0.000000 0.000000 83.138020 -2.995478 16.000233 -15.439376 24.922135 -3.393681 0.101878 -0.482134 -6.963655 7.125000 0.000000 0.000000 
1.029875 17.793212 -26.813107 1.375179 39.810022 3.346485 -9.325756 -10.379902 -10.955948 0.309357 9.313265 24.964098 1.117433 -1.382488 4.469631 0.197800 -2.863900 -7.900000 9.827584 -13.199755 -7.482589 -1.534691 -9.609351 25.213473 9.859872 -36.711716 -23.795130 -0.043300 -1.343800 3.695200 2.013257 5.676120 -0.153520 3.236869 2.979876 0.709909 -2.737299 30.595976 -3.561058 -3.203800 14.991500 2.313600 -95.048185 0.585231 17.649617 15.769429 -25.251289 -3.333665 0.208380 0.364145 -7.126998 -7.125000 0.000000 0.000000 82.982178 -3.093629 16.206783 -15.563098 25.077477 -3.440159 0.102888 -0.482558 -6.841328 7.125000 0.000000 0.000000 
1.029375 17.792513 -26.810410 1.410058 39.858157 3.354230 -9.354725 -10.425314 -10.918087 0.307549 9.311731 24.958298 1.117386 -1.385175 4.466706 0.198200 -2.866900 -7.908400 9.803217 -13.242002 -7.478164 -1.539826 -9.615383 25.230312 9.873549 -36.742684 -23.785844 -0.042500 -1.331200 3.660600 1.928945 5.792083 -0.179568 3.100344 3.040243 0.665482 -2.720578 30.459324 -3.485161 -3.245500 14.927200 2.371800 -94.843415 0.619592 17.919964 15.773198 -25.249831 -3.334046 0.209146 0.363886 -7.163879 -7.125000 0.000000 0.000000 83.197310 -3.212925 15.921126 -15.536602 25.047179 -3.431316 0.102368 -0.483358 -6.766985 7.125000 0.000000 0.000000 
1.029075 17.791713 -26.807313 1.460754 39.908613 3.372729 -9.397009 -10.480677 -10.871891 0.304772 9.308982 24.948124 1.115046 -1.379343 4.458823 0.198900 -2.871500 -7.921300 9.764552 -13.294506 -7.475023 -1.545499 -9.621487 25.247890 9.884927 -36.765600 -23.767741 -0.041700 -1.317700 3.623400 1.843928 5.901684 -0.200498 2.971576 3.096620 0.631329 -2.705931 30.329143 -3.395937 -3.283400 14.866000 2.439300 -94.645552 0.641426 18.170134 15.772814 -25.242758 -3.332537 0.209368 0.362676 -7.199471 -7.125000 0.000000 0.000000 83.422208 -3.324075 15.619345 -15.513617 25.021279 -3.423414 0.102071 -0.483935 -6.668784 7.125000 0.000000 0.000000 
1.028776 17.790914 -26.804016 1.509736 39.960655 3.391308 -9.438710 -10.532505 -10.827194 0.301787 9.305497 24.936189 1.113269 -1.375798 4.453035 0.199100 -2.873100 -7.925700 9.726435 -13.350459 -7.472818 -1.551052 -9.627547 25.265047 9.893729 -36.782501 -23.749861 -0.040900 -1.305900 3.590800 1.679745 6.117769 -0.275699 2.699233 3.210964 0.520829 -2.724152 30.083800 -3.310823 -3.398900 14.753500 2.527900 -94.241493 0.774538 18.709155 15.776234 -25.233658 -3.331162 0.209582 0.362091 -7.284297 -7.125000 0.000000 0.000000 83.836101 -3.489817 15.064496 -15.440653 24.934375 -3.397234 0.101204 -0.484688 -6.561007 7.125000 0.000000 0.000000 
1.028276 17.790315 -26.800818 1.555005 40.010712 3.412948 -9.473785 -10.571372 -10.794621 0.299051 9.302290 24.925950 1.114726 -1.384212 4.449631 0.199000 -2.872700 -7.924700 9.694489 -13.405333 -7.474418 -1.555807 -9.632328 25.279349 9.899485 -36.792540 -23.734645 -0.040400 -1.297100 3.566600 1.568912 6.258670 -0.321003 2.521154 3.284642 0.457178 -2.711737 29.923240 -3.221658 -3.462000 14.680100 2.599700 -93.971664 0.854598 19.052823 15.782383 -25.232160 -3.331408 0.209074 0.360897 -7.349044 -7.125000 0.000000 0.000000 84.138944 -3.624809 14.657835 -15.406527 24.895366 -3.385041 0.100960 -0.485044 -6.449816 7.125000 0.000000 0.000000 
